<svg width="45" height="45" viewBox="0 0 45 45" fill="none" xmlns="http://www.w3.org/2000/svg">
<path d="M9.65484 42.3557C8.32763 42.3543 7.0552 41.8265 6.11672 40.8881C5.17825 39.9496 4.65037 38.677 4.64893 37.3498V11.8652C4.65037 10.538 5.17825 9.26556 6.11672 8.32709C7.0552 7.38861 8.32763 6.86074 9.65484 6.85929H13.7506V4.58388C13.7506 4.22179 13.8944 3.87453 14.1504 3.61849C14.4065 3.36246 14.7537 3.21863 15.1158 3.21863C15.4779 3.21863 15.8252 3.36246 16.0812 3.61849C16.3372 3.87453 16.4811 4.22179 16.4811 4.58388V6.85929H28.3132V4.58388C28.3132 4.22179 28.4571 3.87453 28.7131 3.61849C28.9691 3.36246 29.3164 3.21863 29.6785 3.21863C30.0406 3.21863 30.3878 3.36246 30.6439 3.61849C30.8999 3.87453 31.0437 4.22179 31.0437 4.58388V6.85929H35.1395C36.4668 6.86025 37.7396 7.38795 38.6781 8.32653C39.6167 9.26511 40.1444 10.5378 40.1454 11.8652V37.3498C40.1439 38.677 39.6161 39.9496 38.6776 40.8881C37.7391 41.8265 36.4667 42.3543 35.1395 42.3557H9.65484ZM7.37942 37.3498C7.38038 37.953 7.62042 38.5312 8.04694 38.9577C8.47345 39.3842 9.05165 39.6243 9.65484 39.6252H35.1395C35.7428 39.6248 36.3213 39.3848 36.7479 38.9582C37.1745 38.5316 37.4144 37.9532 37.4149 37.3498V20.5135H7.37942V37.3498ZM37.4149 17.7813V11.8652C37.4144 11.2619 37.1745 10.6834 36.7479 10.2567C36.3213 9.83013 35.7428 9.59027 35.1395 9.58979H31.0437V11.8652C31.0437 12.2273 30.8999 12.5746 30.6439 12.8306C30.3878 13.0866 30.0406 13.2304 29.6785 13.2304C29.3164 13.2304 28.9691 13.0866 28.7131 12.8306C28.4571 12.5746 28.3132 12.2273 28.3132 11.8652V9.58979H16.4811V11.8652C16.4811 12.2273 16.3372 12.5746 16.0812 12.8306C15.8252 13.0866 15.4779 13.2304 15.1158 13.2304C14.7537 13.2304 14.4065 13.0866 14.1504 12.8306C13.8944 12.5746 13.7506 12.2273 13.7506 11.8652V9.58979H9.65484C9.05151 9.59027 8.47305 9.83013 8.04644 10.2567C7.61982 10.6834 7.3799 11.2619 7.37942 11.8652V17.7813H37.4149Z" fill="white"/>
</svg>
